<svg width="56" height="56" viewBox="0 0 56 56" fill="none" xmlns="http://www.w3.org/2000/svg">
<path fill-rule="evenodd" clip-rule="evenodd" d="M8.59852 28.0918C8.59852 38.8093 17.2904 47.5012 28.0079 47.5012C38.7254 47.5012 47.4173 38.8093 47.4173 28.0918C47.4173 17.3743 38.7254 8.68245 28.0079 8.68245C39.5141 8.68245 48.8446 16.5856 48.8446 28.0918C48.8446 39.5981 39.4895 49.5111 27.9832 49.5111C16.477 49.5111 5.73932 39.5981 5.73932 28.0918C5.73932 40.4428 15.6546 50.385 28.0056 50.385C40.3567 50.385 50.375 40.4451 50.375 28.0918C50.375 15.7386 40.3365 4.5998 27.9855 4.5998C41.2462 4.5998 52.0198 14.8333 52.0198 28.0918C52.0198 41.3503 41.2664 52.4107 28.0056 52.4107C14.7449 52.4107 3.44928 41.2629 3.1042 28.0784C3.1042 28.2285 3.11093 28.4638 3.11765 28.6498C3.46945 42.0181 13.8329 53.4123 27.9832 53.4123C42.1336 53.4123 53.7877 42.325 53.7877 28.0896C53.7877 13.8541 42.2411 0.526123 28.0056 0.526123C43.2876 0.526123 55.6789 12.8099 55.6789 28.0918C55.6789 43.3737 43.2853 55.7651 28.0056 55.7651C12.726 55.7651 0.332397 43.3737 0.332397 28.0918C0.332397 17.6432 5.57575 8.73847 14.355 3.59819C15.7555 2.77808 17.1918 2.04983 18.6259 1.36864C19.2152 1.98709 20.4924 2.5428 22.0296 2.97302C23.5959 3.40997 25.4422 3.87828 27.2057 3.86932V4.32867C23.0289 4.24801 20.1115 5.07932 16.4613 7.11168C16.2014 6.73524 15.6277 6.66577 14.9421 7.12065C14.2564 7.57552 13.759 8.54576 13.9539 9.14628C14.1466 9.7468 14.9197 9.71991 15.5717 9.23815C16.2238 8.75415 16.5868 8.11778 16.5913 7.57776C20.1742 5.54092 23.0805 4.67823 27.2057 4.78579V5.23842C25.4848 5.08829 23.8222 5.70673 22.6301 6.73972C21.3999 7.80631 20.6918 9.16645 20.479 10.0919C13.9427 13.7757 8.59628 20.2156 8.59628 28.0941" fill="#C41E3A"/>
<path fill-rule="evenodd" clip-rule="evenodd" d="M28.7546 43.4606C28.6156 43.4136 28.4969 43.362 28.3736 43.3127C28.3602 43.2746 28.3512 43.2478 28.3378 43.2276C28.6425 43.2276 29.131 42.8131 29.3685 42.6024C29.7607 41.9974 30.0206 41.4372 30.2491 40.7448C30.4598 39.6581 30.5203 38.9836 30.5673 38.885C31.3897 38.4302 33.133 38.7573 33.7201 39.5169C34.1973 40.6328 32.6423 41.2714 31.9073 41.7689C30.8273 42.6338 30.1169 43.3688 28.7546 43.4561M28.5484 41.6344C26.3614 41.3454 24.0826 40.3998 22.1085 39.434C20.661 38.5467 19.4084 37.5585 18.1513 36.418C16.4036 34.4954 16.184 34.1794 16.1123 34.1458C15.6932 33.3929 16.9324 33.57 17.2483 33.7537C18.9983 35.7435 20.6991 37.4353 23.0183 38.6946C23.5202 38.9074 24.0199 39.1337 24.524 39.3601C25.9716 39.8597 27.4818 40.4087 28.9876 40.6194C29.4178 40.9084 29.615 41.2737 29.0728 41.6008C28.8935 41.6098 28.7187 41.6232 28.5507 41.6344H28.5484ZM29.0347 40.0457C28.9032 40.0308 28.7359 39.9815 28.5327 39.8978C28.4969 39.7746 28.5036 39.0576 28.5551 38.8088C28.9137 38.3204 29.6598 38.6363 29.9063 39.0844C29.9063 39.862 29.7719 39.9606 29.0347 40.0457ZM25.4024 39.2211C24.9274 39.0576 24.5464 39.0508 24.5352 38.4974C24.9879 37.5585 25.3083 36.7339 26.2158 37.7669C26.3525 38.2711 26.339 38.8716 25.9066 39.1987C25.7363 39.1987 25.566 39.2077 25.4024 39.2189V39.2211ZM34.5066 38.2599C34.1368 38.1837 33.4153 38.159 33.3145 37.7333C34.1144 36.8683 34.8404 35.9205 35.5216 34.957C35.6202 34.9316 35.7031 34.9271 35.7704 34.9435C35.8017 34.9943 35.8585 35.4447 35.9406 36.2947C35.9406 36.9737 36.0482 37.8229 35.4253 38.1971C35.1205 38.215 34.8136 38.2352 34.5066 38.2621V38.2599ZM30.6951 38.0694C29.4066 37.9708 28.2638 37.8341 27.0494 37.3815C25.2814 36.4852 20.7417 32.9045 23.0115 30.5943H25.4517C27.2622 33.086 29.5097 35.869 32.1381 38.0089C31.6474 38.0223 31.1701 38.0492 30.6951 38.0694ZM22.0077 37.4689C21.555 37.1977 20.9299 37.1103 20.8201 36.4941C20.9411 36.3238 21.2234 36.0729 21.7119 35.5329C21.936 35.1699 22.1287 34.5693 22.597 34.5693C22.8412 34.883 23.0765 35.1945 23.1975 35.5844C23.1258 36.223 22.6351 37.2358 22.0099 37.4711L22.0077 37.4689ZM32.593 37.3815C32.2591 37.1328 31.3292 36.2342 31.4054 35.8197C32.5459 34.1705 33.6842 32.3913 34.6052 30.5943H35.795C36.2275 33.0479 34.5671 35.3603 33.1845 37.1821C32.9575 37.2821 32.761 37.3486 32.5952 37.3815H32.593ZM18.5031 34.4327C18.1962 34.1212 17.8533 33.8187 17.6315 33.4445C17.6561 33.3817 17.6785 33.328 17.7166 33.2809C18.6981 32.4698 19.7893 31.7684 20.3674 30.592H21.7634C21.0912 32.2345 20.1098 33.6439 18.5031 34.4327ZM29.2811 33.8097C28.9518 33.5207 28.2392 32.9224 28.2392 32.4698C28.7434 31.7684 29.2274 31.2194 29.801 30.5943H31.6003C31.5757 30.8071 31.5533 30.8788 31.5017 30.9819C31.123 31.7258 30.1304 33.6954 29.2811 33.8097ZM37.5607 29.335C37.8139 29.335 37.982 29.4246 37.982 29.6643C37.982 29.9019 37.8005 29.987 37.563 29.987H19.1238C18.8124 29.987 18.4426 30.0251 18.4314 29.6733C18.4202 29.3215 18.8169 29.335 19.1104 29.335H37.5607ZM39.853 29.2296C39.6312 29.1714 39.5975 29.2408 39.2995 29.0392C39.1785 28.9563 39.1584 28.6314 39.2906 28.6157C39.6603 28.5753 40.579 28.4835 40.402 29.0616C40.3504 29.2296 40.0188 29.27 39.853 29.2274V29.2296ZM22.523 28.7792C22.5118 28.7568 24.1005 28.7792 25.7744 27.8157C26.7379 28.5328 28.6806 28.7792 29.9153 28.7792H22.523ZM38.1164 28.9114C37.2515 28.8465 37.0453 27.316 37.5585 26.3279C38.0156 25.445 39.8642 25.1201 39.4586 26.0254C39.1987 26.608 38.3875 26.3928 38.2665 27.5155C38.1904 28.2235 38.7998 28.963 38.1164 28.9114ZM35.0466 28.768C35.0466 27.7037 35.0824 26.4758 36.2992 26.301C36.6129 26.4646 36.8594 27.9905 36.8885 28.3804C36.9378 28.5193 36.9378 28.5552 36.9109 28.7815L35.0466 28.7703V28.768ZM29.5612 28.0308C29.3506 27.9748 29.4313 27.7261 29.5478 27.679C29.8346 27.5625 31.0043 27.5222 30.8205 27.9815C30.76 28.1317 30.0273 28.1541 29.5612 28.0286V28.0308ZM39.2861 28.2079C39.2458 28.1429 39.3421 27.8337 39.499 27.818C39.7432 27.7911 41.0563 27.6477 40.7583 28.1944C40.6126 28.4633 39.4452 28.4655 39.2861 28.2079ZM32.3017 28.1025C31.8939 28.0107 31.8871 27.5872 32.0417 27.1166C32.156 26.7715 32.2748 26.3167 32.0888 25.9873C31.5981 25.6153 31.5734 25.4405 31.6115 24.8131C31.9678 23.2648 32.0507 22.3281 32.1605 22.001C32.6871 21.9248 33.2473 22.1825 33.4489 22.5724C34.0607 23.7532 33.9867 25.0327 33.4489 26.422C33.2898 26.8365 32.8036 28.2146 32.2994 28.1025H32.3017ZM28.4162 28.1989C27.4213 28.0532 25.929 27.818 25.8371 26.9015C25.7273 25.8125 26.9889 25.5234 27.5378 25.4629C28.5103 25.3576 30.2783 25.5772 30.8922 25.8909C31.2351 26.0657 31.1723 26.3122 30.639 26.18C29.438 25.882 29.0436 26.292 29.084 27.9457C29.0907 28.2482 28.6022 28.2258 28.4162 28.1989ZM29.7629 27.3496C29.5388 27.2824 29.5187 27.1368 29.5926 27.0471C29.7136 26.8993 30.8654 26.9082 30.8026 27.269C30.7623 27.5065 30.1147 27.4572 29.7629 27.3496ZM39.853 27.3564C39.4743 27.3026 39.2368 27.0113 39.6222 26.7446C39.965 26.6954 41.5582 26.5407 40.9577 27.316C40.7269 27.4326 40.2227 27.3429 39.853 27.3564ZM30.4844 26.7917C30.2559 26.7783 29.6509 26.7939 29.7136 26.4914C29.7741 26.1889 30.3993 26.3906 30.6547 26.4668C31.0581 26.5878 30.9483 26.8186 30.4844 26.7917ZM40.467 26.3525C40.0233 26.0903 40.4401 25.8663 40.7695 25.8663C41.2199 25.7901 41.2714 26.0455 40.9958 26.2718C40.8725 26.3346 40.7874 26.3167 40.467 26.3525ZM39.4228 25.0529C38.4592 25.0865 37.9282 23.8742 38.224 23.1012C39.1673 23.1102 40.1241 23.1258 41.0832 23.1482C41.1594 24.0356 40.8188 25.0036 39.4228 25.0529ZM24.8557 20.3764C24.7929 20.3496 24.7414 20.3383 24.6943 20.3227C24.6943 19.8992 25.3822 19.5474 25.492 20.0358C25.3329 20.2487 25.0842 20.298 24.8557 20.3742V20.3764ZM23.7913 19.9619C23.7129 19.935 23.6524 19.9126 23.5919 19.9014C23.4418 19.2628 24.8064 18.6376 25.3217 18.9872C25.2926 19.0634 25.2814 19.1373 25.2724 19.2135C24.3851 19.2919 24.0019 19.684 23.7891 19.9619H23.7913ZM22.7942 18.2746C22.3102 16.6209 22.4648 14.4922 24.3918 13.5489C26.3278 12.601 29.6464 13.1545 31.1992 16.5515C29.5523 15.7358 27.9815 15.5095 26.4533 15.8793C24.9744 16.2378 23.807 17.1408 22.7942 18.2769V18.2746ZM28.2638 22.7292C28.2145 22.7158 27.9255 22.6911 27.9165 22.6553C27.8852 22.5343 28.0286 22.364 28.1428 22.3124C28.5014 22.1489 28.8666 21.8509 28.963 22.3617C28.8532 22.5903 28.4969 22.6486 28.2638 22.7292ZM27.6499 22.1892C27.6028 22.1534 27.5513 22.113 27.5154 22.0884C27.5154 21.6268 28.6694 21.4206 28.9159 21.5752V21.6985C28.4991 22.0727 28.1921 22.1578 27.6499 22.187V22.1892ZM25.1604 18.2746C24.7907 18.2119 24.3112 18.1447 23.3252 18.8124C24.766 17.1027 26.4757 16.3834 27.8941 16.4126C29.3148 16.4417 30.2604 16.8226 31.1723 17.4097C32.3756 16.6097 32.4496 18.7586 31.5398 19.274C31.5398 20.8963 31.1611 22.1018 29.8727 23.0765C27.8717 24.0289 25.8102 22.7763 24.5532 21.1988C24.5532 21.1517 24.8198 21.1988 24.8198 21.1585C25.9604 20.8716 26.1643 20.4056 26.3166 20.2263C26.6214 20.6005 26.9911 21.0599 27.1995 21.4879C27.5423 21.4991 28.3423 21.6021 28.2504 21.0375C28.1488 20.9628 27.9442 20.8754 27.6364 20.7753C26.9665 19.7109 26.4959 18.4965 25.1626 18.2746H25.1604ZM28.0935 18.6107C27.9972 18.6264 27.9636 18.5301 28.0196 18.4472C28.2033 18.1715 28.7635 17.6472 29.0033 17.9452C29.2453 18.2455 28.4185 18.5592 28.0935 18.6107ZM27.6857 19.2337C26.3592 18.7945 28.2325 17.4926 28.7658 17.3357C29.0862 17.2416 29.5993 17.1991 29.9086 17.3469C30.0318 18.1357 29.1848 18.8415 28.5574 19.0858C28.2795 19.1933 27.9591 19.3233 27.6857 19.2337ZM27.4863 24.8333L23.0048 21.3825C23.1885 21.2884 23.314 21.1652 23.5067 21.0711C24.4882 22.3842 26.5161 24.0938 28.3714 24.1745C30.0901 24.2507 30.9527 23.202 31.1679 22.8054C31.3762 23.2804 30.9505 24.7773 30.5472 25.1022C29.857 24.9588 28.9921 24.7571 27.4885 24.8333H27.4863ZM21.6693 21.3624L18.6085 19.209C17.9743 18.7631 18.1357 18.1021 18.9244 18.6287L22.4065 20.959C22.6866 20.7843 22.8771 20.6364 23.0877 20.549C21.4228 18.2455 21.0486 14.3668 23.8406 12.917C27.3967 11.0706 30.7219 13.3741 31.9476 16.1593C33.3033 16.2736 33.422 18.6443 32.3599 19.6101C32.416 20.0941 32.3644 20.67 32.23 21.0195C34.1996 21.2279 35.7681 23.8496 36.2969 25.4898C36.8885 25.2411 37.2403 25.1985 37.7377 25.1851C37.2403 24.6249 36.9423 22.8592 37.5405 22.2878L41.7554 22.3259C42.515 22.8995 41.9481 24.7504 41.547 25.5145C41.7195 26.1777 41.6814 26.7648 41.6456 27.4662C41.2893 28.8151 40.4558 30.0049 40.3213 31.4076C40.0345 32.4981 39.8545 33.1442 39.7813 33.3459C39.6849 33.3952 39.611 33.3683 39.4878 33.3571C39.0575 32.6333 38.7886 31.4211 38.5063 30.5943H36.7877C37.0072 31.7326 36.7742 32.8753 36.5815 34.0226H42.8018C43.6578 34.0226 43.8057 35.1273 42.822 35.1273H36.7115C36.698 36.9132 37.1529 39.1472 34.278 38.9993C35.2684 40.2519 33.747 41.1639 32.9201 41.9705C31.2799 43.5704 29.5276 44.1799 28.5215 43.9021C27.5378 43.6309 27.4325 42.8063 28.9473 42.3425C29.196 42.2663 28.5977 42.1722 28.2258 42.1207C23.928 41.5157 19.8252 39.5079 15.9868 35.125H12.9506C12.3456 35.125 12.303 34.0204 12.9102 34.0204H15.4983C15.6776 34.0204 15.2361 33.6775 15.3011 33.319C16.5671 33.0165 19.3636 32.2546 19.5339 30.592H18.8751C18.4135 30.592 17.7996 30.3769 17.7906 29.6867C17.7816 28.9966 18.3441 28.7792 18.8751 28.7792H20.7753C19.4129 28.5977 18.2768 27.7082 18.0371 26.6012C17.4881 24.0759 19.6728 22.5096 21.6716 21.3601L21.6693 21.3624ZM26.6976 24.9812L22.2654 21.7747C20.2576 22.8906 18.4404 24.2776 18.7922 26.4309C19.0185 27.8157 20.3585 28.1272 21.517 28.1451C22.7583 28.163 24.0804 28.0555 25.1963 27.4393C25.2344 27.316 25.2724 27.204 25.3083 27.0942C25.6623 24.244 22.402 24.7661 20.708 25.1918C20.6453 25.1201 20.5826 25.0551 20.5221 24.9924C20.5221 24.8423 20.4997 24.7437 20.596 24.6428C20.829 24.5554 21.9203 24.365 22.3998 24.2305C22.4715 23.928 21.9337 23.7891 21.7253 23.7152C21.7097 23.6547 21.7097 23.5919 21.7097 23.5449C21.9808 23.3432 22.1914 23.4418 22.4984 23.5269C22.5186 23.5045 22.5477 23.4776 22.5701 23.4642C22.644 22.9914 21.9808 22.8144 22.178 22.4178C23.0743 22.3035 23.4395 23.7443 23.9437 24.3314C24.9386 24.291 25.5413 24.849 25.873 25.2949C26.1262 25.1582 26.3547 25.0596 26.6953 24.9834L26.6976 24.9812Z" fill="#C41E3A"/>
</svg>
