<svg width="84" height="40" viewBox="0 0 84 40" fill="none" xmlns="http://www.w3.org/2000/svg">
<g clip-path="url(#clip0_591_3447)">
<path fill-rule="evenodd" clip-rule="evenodd" d="M5.62083 18.7055C5.62083 25.9781 11.5311 31.8763 18.8189 31.8763C26.1066 31.8763 32.0169 25.9781 32.0169 18.7055C32.0169 11.4328 26.1066 5.53471 18.8189 5.53471C26.643 5.53471 32.9875 10.8976 32.9875 18.7055C32.9875 26.5134 26.6262 33.2402 18.8022 33.2402C10.9781 33.2402 3.67663 26.5134 3.67663 18.7055C3.67663 27.0866 10.4188 33.8333 18.8174 33.8333C27.2158 33.8333 34.0282 27.0881 34.0282 18.7055C34.0282 10.3228 27.2021 2.76431 18.8037 2.76431C27.8207 2.76431 35.1466 9.70856 35.1466 18.7055C35.1466 27.7025 27.8345 35.2078 18.8174 35.2078C9.80027 35.2078 2.11943 27.6431 1.88478 18.6964C1.88478 18.7983 1.88935 18.958 1.89393 19.0842C2.13314 28.1556 9.18014 35.8875 18.8022 35.8875C28.4242 35.8875 36.3488 28.3639 36.3488 18.7039C36.3488 9.04409 28.4973 0 18.8174 0C29.2089 0 37.6348 8.33553 37.6348 18.7055C37.6348 29.0755 29.2073 37.4841 18.8174 37.4841C8.42744 37.4841 0 29.0755 0 18.7055C0 11.6153 3.5654 5.57272 9.53515 2.08464C10.4875 1.52813 11.4642 1.03396 12.4393 0.571718C12.84 0.991383 13.7085 1.36848 14.7537 1.66041C15.8188 1.95692 17.0743 2.27471 18.2734 2.26862V2.58034C15.4333 2.52559 13.4495 3.08971 10.9674 4.46882C10.7907 4.21338 10.4006 4.16624 9.93435 4.47491C9.46811 4.78358 9.12986 5.44197 9.26241 5.84947C9.39345 6.25697 9.91912 6.23872 10.3625 5.91181C10.8059 5.58337 11.0527 5.15154 11.0558 4.7851C13.4921 3.40294 15.4683 2.81754 18.2734 2.89052V3.19766C17.1032 3.09579 15.9727 3.51546 15.1621 4.21642C14.3256 4.94019 13.8441 5.86315 13.6994 6.49113C9.2548 8.99088 5.61931 13.3609 5.61931 18.707" fill="#C41E3A"/>
<path fill-rule="evenodd" clip-rule="evenodd" d="M19.3266 29.1344C19.2321 29.1024 19.1514 29.0675 19.0676 29.034C19.0585 29.0082 19.0524 28.9899 19.0432 28.9762C19.2504 28.9762 19.5826 28.6949 19.7441 28.552C20.0108 28.1415 20.1875 27.7614 20.3429 27.2915C20.4861 26.5541 20.5273 26.0964 20.5592 26.0295C21.1185 25.7208 22.3039 25.9428 22.7031 26.4583C23.0276 27.2155 21.9702 27.6489 21.4704 27.9864C20.7361 28.5733 20.2531 29.0721 19.3266 29.1313M19.1864 27.8951C17.6993 27.699 16.1498 27.0573 14.8074 26.402C13.8231 25.7999 12.9714 25.1293 12.1166 24.3554C10.9281 23.0507 10.7788 22.8363 10.7301 22.8136C10.4451 22.3027 11.2877 22.4228 11.5025 22.5475C12.6925 23.8977 13.849 25.0457 15.426 25.9002C15.7673 26.0447 16.1071 26.1983 16.4499 26.3518C17.4342 26.6909 18.4611 27.0634 19.4851 27.2064C19.7776 27.4025 19.9117 27.6504 19.543 27.8724C19.4211 27.8785 19.3023 27.8876 19.1879 27.8951H19.1864ZM19.5171 26.8171C19.4276 26.807 19.3139 26.7735 19.1758 26.7167C19.1514 26.6331 19.156 26.1465 19.191 25.9777C19.4348 25.6463 19.9422 25.8607 20.1098 26.1648C20.1098 26.6924 20.0183 26.7593 19.5171 26.8171ZM17.0472 26.2576C16.7241 26.1465 16.4651 26.142 16.4576 25.7664C16.7653 25.1293 16.9832 24.5697 17.6003 25.2707C17.6932 25.6128 17.6841 26.0203 17.39 26.2424C17.2742 26.2424 17.1584 26.2484 17.0472 26.2561V26.2576ZM23.2379 25.6053C22.9865 25.5535 22.4958 25.5368 22.4273 25.248C22.9713 24.661 23.4649 24.0178 23.9281 23.364C23.9952 23.3468 24.0515 23.3437 24.0972 23.3549C24.1186 23.3894 24.1572 23.695 24.213 24.2717C24.213 24.7325 24.2862 25.3087 23.8626 25.5627C23.6554 25.5749 23.4466 25.5885 23.2379 25.6067V25.6053ZM20.6461 25.476C19.77 25.4091 18.9929 25.3164 18.1671 25.0092C16.965 24.401 13.878 21.9712 15.4214 20.4036H17.0807C18.3119 22.0944 19.8401 23.9829 21.6273 25.435C21.2937 25.4441 20.9691 25.4624 20.6461 25.476ZM14.7388 25.0685C14.431 24.8845 14.0059 24.8252 13.9313 24.4071C14.0136 24.2915 14.2055 24.1212 14.5377 23.7548C14.69 23.5084 14.8211 23.101 15.1396 23.101C15.3057 23.3138 15.4656 23.5252 15.5479 23.7897C15.4991 24.2231 15.1655 24.9103 14.7404 25.07L14.7388 25.0685ZM21.9367 25.0092C21.7096 24.8404 21.0774 24.2307 21.1291 23.9494C21.9047 22.8303 22.6787 21.623 23.3049 20.4036H24.114C24.408 22.0686 23.279 23.6377 22.3389 24.8739C22.1845 24.9418 22.0509 24.9869 21.9382 25.0092H21.9367ZM12.3558 23.0082C12.147 22.7968 11.9139 22.5916 11.7631 22.3377C11.7799 22.2951 11.7951 22.2586 11.821 22.2266C12.4884 21.6762 13.2304 21.2003 13.6235 20.402H14.5727C14.1157 21.5165 13.4483 22.473 12.3558 23.0082ZM19.6847 22.5855C19.4607 22.3893 18.9762 21.9833 18.9762 21.6762C19.319 21.2003 19.6482 20.8278 20.0382 20.4036H21.2617C21.2449 20.548 21.2297 20.5966 21.1947 20.6666C20.9372 21.1714 20.2621 22.508 19.6847 22.5855ZM25.3147 19.549C25.4868 19.549 25.6011 19.6099 25.6011 19.7725C25.6011 19.9337 25.4776 19.9915 25.3161 19.9915H12.7779C12.5661 19.9915 12.3147 20.0173 12.3071 19.7786C12.2994 19.5398 12.5692 19.549 12.7688 19.549H25.3147ZM26.8733 19.4775C26.7226 19.438 26.6997 19.4851 26.497 19.3483C26.4147 19.292 26.4011 19.0715 26.4909 19.0609C26.7424 19.0335 27.3671 18.9712 27.2467 19.3635C27.2116 19.4775 26.9862 19.5049 26.8733 19.476V19.4775ZM15.0893 19.1719C15.0817 19.1566 16.1619 19.1719 17.3001 18.518C17.9553 19.0046 19.2763 19.1719 20.1158 19.1719H15.0893ZM25.6925 19.2616C25.1044 19.2175 24.9642 18.179 25.3132 17.5084C25.6239 16.9094 26.881 16.6889 26.6053 17.3032C26.4284 17.6985 25.8769 17.5525 25.7946 18.3143C25.7428 18.7948 26.1573 19.2966 25.6925 19.2616ZM23.6051 19.1643C23.6051 18.4421 23.6295 17.6088 24.4568 17.4902C24.6701 17.6012 24.8377 18.6367 24.8575 18.9012C24.8911 18.9955 24.8911 19.0198 24.8727 19.1734L23.6051 19.1658V19.1643ZM19.8751 18.664C19.7319 18.626 19.7868 18.4573 19.866 18.4253C20.061 18.3463 20.8564 18.3188 20.7315 18.6306C20.6903 18.7324 20.1921 18.7476 19.8751 18.6625V18.664ZM26.4878 18.7842C26.4605 18.7401 26.5259 18.5303 26.6326 18.5196C26.7987 18.5014 27.6916 18.404 27.489 18.775C27.3899 18.9575 26.5961 18.959 26.4878 18.7842ZM21.7386 18.7127C21.4613 18.6503 21.4567 18.3629 21.5619 18.0437C21.6396 17.8095 21.7203 17.5008 21.5938 17.2773C21.2602 17.025 21.2434 16.9063 21.2693 16.4806C21.5116 15.4299 21.5679 14.7944 21.6426 14.5723C22.0007 14.5206 22.3816 14.6954 22.5187 14.9601C22.9347 15.7613 22.8844 16.6295 22.5187 17.5723C22.4106 17.8536 22.0799 18.7887 21.7371 18.7127H21.7386ZM19.0966 18.7781C18.42 18.6792 17.4053 18.5196 17.3428 17.8977C17.2682 17.1587 18.126 16.9626 18.4992 16.9215C19.1606 16.8501 20.3627 16.999 20.7802 17.2119C21.0133 17.3305 20.9707 17.4978 20.608 17.4081C19.7913 17.2059 19.5232 17.4841 19.5506 18.6062C19.5552 18.8116 19.223 18.7963 19.0966 18.7781ZM20.0122 18.2018C19.8599 18.1562 19.8462 18.0574 19.8965 17.9965C19.9787 17.8962 20.7619 17.9023 20.7192 18.1471C20.6919 18.3082 20.2515 18.2748 20.0122 18.2018ZM26.8733 18.2063C26.6159 18.1699 26.4544 17.9722 26.7164 17.7913C26.9495 17.7578 28.0329 17.6529 27.6245 18.179C27.4676 18.2581 27.1248 18.1972 26.8733 18.2063ZM20.5029 17.8232C20.3475 17.8141 19.9361 17.8247 19.9787 17.6195C20.0199 17.4142 20.445 17.551 20.6187 17.6027C20.893 17.6848 20.8182 17.8414 20.5029 17.8232ZM27.2909 17.5251C26.9892 17.3473 27.2725 17.1953 27.4965 17.1953C27.8028 17.1435 27.8378 17.3169 27.6505 17.4704C27.5667 17.513 27.5088 17.5008 27.2909 17.5251ZM26.5809 16.6432C25.9256 16.6661 25.5645 15.8435 25.7656 15.3189C26.4071 15.325 27.0577 15.3356 27.7099 15.3508C27.7617 15.9529 27.5301 16.6098 26.5809 16.6432ZM16.6754 13.47C16.6328 13.4517 16.5977 13.4441 16.5657 13.4334C16.5657 13.1461 17.0335 12.9073 17.1081 13.2388C17 13.3833 16.8308 13.4167 16.6754 13.4684V13.47ZM15.9517 13.1887C15.8983 13.1704 15.8572 13.1552 15.8161 13.1475C15.714 12.7142 16.6419 12.29 16.9923 12.5272C16.9725 12.5789 16.965 12.6291 16.9588 12.6807C16.3555 12.734 16.0949 13.0001 15.9502 13.1887H15.9517ZM15.2736 12.0437C14.9446 10.9215 15.0497 9.47703 16.3601 8.83689C17.6765 8.1937 19.933 8.56927 20.9889 10.8743C19.8691 10.3209 18.801 10.1673 17.7618 10.4183C16.7562 10.6615 15.9623 11.2743 15.2736 12.0452V12.0437ZM18.9929 15.0664C18.9594 15.0574 18.7628 15.0406 18.7568 15.0163C18.7355 14.9342 18.833 14.8187 18.9106 14.7836C19.1544 14.6727 19.4028 14.4704 19.4683 14.8171C19.3936 14.9722 19.1514 15.0117 18.9929 15.0664ZM18.5755 14.7C18.5434 14.6757 18.5084 14.6484 18.484 14.6316C18.484 14.3184 19.2687 14.1785 19.4363 14.2834V14.3671C19.1529 14.621 18.9441 14.6788 18.5755 14.6985V14.7ZM16.8827 12.0437C16.6312 12.0011 16.3051 11.9554 15.6348 12.4086C16.6145 11.2484 17.777 10.7603 18.7415 10.7801C19.7076 10.7999 20.3506 11.0583 20.9707 11.4567C21.7888 10.914 21.8392 12.3721 21.2206 12.7218C21.2206 13.8227 20.963 14.6407 20.087 15.3022C18.7263 15.9484 17.3245 15.0984 16.4697 14.0279C16.4697 13.9961 16.651 14.0279 16.651 14.0006C17.4266 13.806 17.5653 13.4897 17.6689 13.3681C17.876 13.622 18.1275 13.9337 18.2692 14.2241C18.5023 14.2317 19.0462 14.3016 18.9837 13.9185C18.9147 13.8678 18.7756 13.8085 18.5663 13.7406C18.1108 13.0184 17.7908 12.1943 16.8842 12.0437H16.8827ZM18.8772 12.2717C18.8116 12.2824 18.7887 12.217 18.8268 12.1608C18.9518 11.9737 19.3327 11.6179 19.4957 11.8202C19.6603 12.024 19.0981 12.2368 18.8772 12.2717ZM18.5998 12.6944C17.6978 12.3964 18.9716 11.513 19.3342 11.4066C19.5521 11.3427 19.901 11.3139 20.1114 11.4141C20.1951 11.9494 19.6192 12.4284 19.1925 12.5941C19.0036 12.6671 18.7857 12.7553 18.5998 12.6944ZM18.4642 16.4943L15.4168 14.1527C15.5418 14.0888 15.6271 14.0051 15.7581 13.9413C16.4255 14.8323 17.8045 15.9925 19.066 16.0472C20.2347 16.0989 20.8213 15.3873 20.9676 15.1182C21.1093 15.4405 20.8198 16.4563 20.5456 16.6767C20.0762 16.5794 19.4881 16.4426 18.4657 16.4943H18.4642ZM14.5087 14.139L12.4275 12.6778C11.9962 12.3752 12.106 11.9266 12.6423 12.2839L15.0101 13.8653C15.2005 13.7466 15.3301 13.6463 15.4733 13.587C14.3412 12.024 14.0867 9.39188 15.9852 8.40809C18.4032 7.15518 20.6644 8.71828 21.4979 10.6083C22.4197 10.6859 22.5004 12.2945 21.7782 12.9499C21.8163 13.2783 21.7813 13.6691 21.6898 13.9063C23.0292 14.0477 24.0957 15.8268 24.4553 16.9397C24.8575 16.771 25.0967 16.7421 25.4351 16.733C25.0967 16.3529 24.8941 15.1547 25.3009 14.7669L28.167 14.7928C28.6834 15.182 28.298 16.438 28.0253 16.9565C28.1426 17.4066 28.1167 17.805 28.0923 18.2809C27.8501 19.1963 27.2833 20.0036 27.1918 20.9555C26.9968 21.6955 26.8744 22.1339 26.8246 22.2707C26.7591 22.3042 26.7088 22.2859 26.6251 22.2784C26.3325 21.7872 26.1496 20.9646 25.9577 20.4036H24.789C24.9383 21.1759 24.7798 21.9514 24.6489 22.7299H28.8785C29.4606 22.7299 29.5611 23.4795 28.8922 23.4795H24.7372C24.7281 24.6914 25.0373 26.2074 23.0825 26.107C23.756 26.957 22.7213 27.5759 22.1591 28.1232C21.0438 29.2089 19.8522 29.6225 19.1681 29.4339C18.4992 29.2499 18.4276 28.6904 19.4577 28.3757C19.6268 28.3239 19.22 28.2601 18.967 28.2251C16.0446 27.8146 13.2548 26.4522 10.6447 23.478H8.58015C8.16875 23.478 8.13981 22.7284 8.55272 22.7284H10.3125C10.4344 22.7284 10.1343 22.4957 10.1785 22.2525C11.0393 22.0472 12.9409 21.5302 13.0567 20.402H12.6088C12.2949 20.402 11.8774 20.256 11.8713 19.7877C11.8651 19.3194 12.2476 19.1719 12.6088 19.1719H13.9009C12.9744 19.0487 12.2019 18.4451 12.0389 17.6939C11.6656 15.9803 13.1512 14.9175 14.5103 14.1375L14.5087 14.139ZM17.9279 16.5946L14.914 14.4187C13.5489 15.176 12.3131 16.1171 12.5523 17.5784C12.7063 18.518 13.6175 18.7295 14.4051 18.7416C15.2493 18.7538 16.1482 18.6808 16.907 18.2626C16.9329 18.179 16.9588 18.103 16.9832 18.0285C17.224 16.0944 15.007 16.4486 13.8551 16.7376C13.8125 16.6889 13.7698 16.6448 13.7286 16.6022C13.7286 16.5003 13.7134 16.4334 13.779 16.365C13.9374 16.3057 14.6794 16.1764 15.0055 16.0853C15.0542 15.88 14.6885 15.7857 14.5468 15.7355C14.5362 15.6944 14.5362 15.6519 14.5362 15.6199C14.7206 15.4831 14.8638 15.55 15.0725 15.6078C15.0863 15.5925 15.1061 15.5744 15.1213 15.5652C15.1715 15.2444 14.7206 15.1242 14.8546 14.8551C15.4641 14.7776 15.7125 15.7553 16.0553 16.1537C16.7318 16.1263 17.1417 16.5049 17.3672 16.8075C17.5393 16.7147 17.6947 16.6478 17.9264 16.5962L17.9279 16.5946Z" fill="#C41E3A"/>
</g>
<defs>
<clipPath id="clip0_591_3447">
<rect width="37.8125" height="37.7344" fill="white"/>
</clipPath>
</defs>
</svg>
