<svg width="5395" height="1652" viewBox="0 0 5395 1652" fill="none" xmlns="http://www.w3.org/2000/svg">
<path d="M4458.21 63.0907V109.575H4378.65L4391.93 619.912H4292.57L4305.85 295.141H4209.75L4199.85 305.04V421.065H4107V305.04L4097.1 295.141H3991.1L3982.33 310.176C4011.15 375.957 4016.04 491.106 4046.99 550.747C4058.26 572.549 4070.17 573.05 4093.6 573.677L4093.85 619.786H3977.82C3971.31 619.786 3955.64 594.1 3952.51 585.455C3937.98 546.112 3885.6 306.919 3887.86 271.71C3888.61 259.807 3886.98 249.282 3898.38 242.015H4117.15C4131.19 242.015 4150.73 272.963 4147.1 288.375L4183.43 242.015H4306.1C4296.2 198.787 4327.78 145.787 4302.84 109.451H3795.89L3814.81 608.885L3809.55 616.905C3790.5 619.285 3716.95 628.306 3710.69 608.885L3716.45 348.016H3570.61L3577.25 493.863H3441.42L3432.53 482.836L3445.56 305.791L3455.71 295.892L3484.03 294.514C3481.14 284.616 3491.17 269.956 3491.17 265.195V109.451H3093.47V242.015H3348.58C3351.09 242.015 3361.11 256.925 3362.49 261.812C3366.5 275.97 3318.38 498.248 3309.11 527.191C3302.97 546.362 3284.05 573.301 3262.5 573.301H3166.4V520.3C3198.35 522.806 3202.98 519.423 3214.76 492.359C3225.79 466.924 3262.37 341.501 3264.63 316.191C3265.38 308.423 3263.25 294.891 3255.98 294.891H3100.24L3106.88 619.661H3007.52L3001.26 523.182C2967.68 511.153 2852.53 532.203 2831.73 513.784C2802.66 487.848 2771.21 337.115 2743.89 296.77L2742.14 253.166C2743.52 248.781 2757.05 242.015 2758.93 242.015H2954.39V295.016H2845.01C2834.99 303.16 2834.99 303.285 2837.99 315.189C2840.12 323.584 2911.67 455.145 2917.56 461.159C2941.49 485.342 2976.7 480.831 3007.39 480.706L3026.19 120.476L3017.29 109.451H2662.7L2681.62 608.885L2676.36 616.905C2657.31 619.285 2583.76 628.306 2577.5 608.885L2589.78 295.016H2417.5C2429.02 376.459 2488.91 468.176 2500.69 546.487C2506.58 585.58 2506.71 614.398 2460.72 619.912C2431.78 623.295 2229.17 623.419 2212.26 616.277C2166.9 597.358 2159.38 440.361 2145.85 394.502C2165.65 397.76 2217.02 386.858 2228.8 401.017C2250.1 426.578 2262.25 556.135 2291.7 570.168C2305.98 576.934 2384.79 578.814 2390.31 562.525L2325.03 264.318C2322.02 257.301 2329.66 242.015 2334.8 242.015H2589.9C2585.52 199.79 2612.46 147.04 2586.65 109.451H2053.13C2057.89 241.013 2062.03 372.45 2066.16 504.012C2067.29 539.095 2086.96 588.963 2063.15 619.661H1967.05L1980.08 218.459C1981.21 185.255 2000.76 138.269 1977.08 109.325H1814.69C1814.94 202.296 1851.78 307.545 1854.66 398.01C1855.16 412.92 1849.15 440.736 1831.23 440.736H1721.85C1755.68 494.238 1842.88 547.114 1874.58 596.105C1879.85 604.249 1882.73 609.261 1880.85 619.661H1778.1C1766.7 619.661 1660.2 470.432 1641.78 451.136L1635.64 394.251H1745.03C1768.46 351.024 1750.41 286.37 1748.03 238.757C1746.03 197.409 1757.93 143.531 1738.38 109.2H1629V62.8398H4458.96L4458.21 63.0907ZM3729.23 109.575H3566.85C3563.59 109.575 3555.95 120.476 3556.7 126.115L3570.1 295.141H3722.59L3729.23 109.575Z" fill="#CB2323"/>
<path d="M5394.75 819.841V866.326C5375.7 869.959 5308.92 856.552 5302.4 877.226L5315.18 998.89H5126.36C5069.1 1112.79 5318.19 1023.45 5348.76 1074.69C5364.43 1100.88 5346.26 1250.74 5311.93 1250.74H5215.82L5222.71 1204.63C5275.84 1224.05 5297.77 1111.53 5265.57 1111.53H5146.28C5145.28 1111.53 5134.26 1122.06 5132.88 1124.94C5126.36 1138.85 5164.95 1317.02 5177.73 1328.55C5188.38 1338.2 5210.69 1332.68 5216.58 1340.83L5222.46 1383.18H5106.44C5100.8 1383.18 5086.89 1359.87 5084.76 1351.85C5074.24 1313.64 5058.83 1195.73 5056.95 1154.51C5056.32 1141.1 5054.32 1121.56 5058.07 1109.4C5063.21 1092.74 5081.13 1097.88 5083.26 1085.09C5035.4 1091.99 5025.5 945.89 5053.44 945.89H5229.11L5235.75 866.326H4960.72C4957.46 866.326 4949.82 877.227 4950.57 882.865L4970.62 1376.66H4871.26C4856.1 1346.72 4870.5 1320.4 4871.26 1293.71C4872.76 1230.57 4873.26 1167.79 4877.9 1104.89H4732.05C4721.78 1152.13 4752.73 1210.52 4728.79 1250.74H4592.97L4602.74 1064.67L4610.64 1051.64L4646.1 1051.89C4636.07 1001.77 4658.63 935.114 4652.99 889.13C4651.86 879.482 4652.24 872.089 4642.71 866.326H4510.15C4486.47 895.269 4506.14 942.256 4507.14 975.46C4511.03 1105.64 4515.91 1235.7 4519.17 1365.89C4512.78 1385.31 4439.23 1376.29 4420.31 1373.9L4415.05 1365.89L4420.81 1105.02H4274.97C4277.47 1127.45 4295.27 1197.86 4258.43 1197.86H4149.04C4182.87 1251.36 4270.08 1304.24 4301.78 1353.23C4307.04 1361.38 4309.92 1366.39 4308.05 1376.79H4205.3C4194.53 1376.79 4074.74 1221.79 4068.85 1208.26C4060.08 1187.96 4062.21 1172.43 4062.71 1151.38H4172.1C4188.64 1123.18 4183.37 1070.18 4182.37 1035.1C4181.87 1019.44 4175.98 1004.9 4175.23 989.242C4173.23 950.024 4185.13 898.527 4165.58 866.326H4069.48V819.966H5395L5394.75 819.841ZM4433.72 866.326H4241.51L4262.44 1040.86L4271.33 1051.89H4427.08L4433.72 866.326ZM4884.41 866.326H4718.77L4725.41 1051.89H4877.9C4887.29 990.495 4884.41 928.348 4884.54 866.326H4884.41Z" fill="#CB2323"/>
<path d="M2901.52 814.904V861.389C2888.61 861.89 2860.17 856.252 2855.66 872.165L2875.08 1371.72H2775.72L2785.62 861.389H2447.57C2422.63 898.602 2446.19 952.104 2444.31 993.953H2692.9C2695.4 993.953 2706.81 1007.11 2708.18 1012C2714.7 1033.67 2668.72 1228.76 2658.57 1264.47C2646.41 1307.2 2649.67 1318.47 2599.3 1324.49C2584.64 1326.24 2525.13 1328.25 2516.86 1322.36C2492.3 1268.23 2526 1281.39 2547.55 1266.1C2570.61 1249.69 2606.07 1083.79 2610.08 1046.95H2444.43L2456.71 1360.82C2450.32 1380.24 2377.15 1371.22 2357.85 1368.84L2351.59 1272.36H2189.2C2185.7 1272.36 2171.04 1253.19 2167.65 1247.55C2151.49 1219.36 2096.23 1073.02 2089.34 1040.81C2086.46 1027.41 2086.46 994.079 2103.12 994.079H2305.23V1047.08H2185.95C2183.94 1058.86 2187.57 1067.75 2191.08 1078.4C2195.22 1090.93 2262.25 1212.72 2268.89 1219.24C2282.68 1232.77 2345.32 1240.79 2355.22 1226.5L2371.39 861.514H2006.9L2020.18 1371.85H1920.82L1927.33 1159.72C1894.5 1183.9 1802.16 1371.85 1771.71 1371.85H1655.69C1654.31 1357.44 1654.56 1348.04 1661.95 1335.01C1685.76 1293.16 1788.75 1220.11 1824.71 1173C1829.85 1166.36 1837.49 1164.61 1834.61 1153.08H1718.59C1716.08 1153.08 1702.55 1136.42 1700.42 1131.53C1688.64 1104.34 1712.95 971.775 1715.2 931.054C1716.58 907.999 1714.45 884.569 1715.2 861.514H1629V815.154H2901.52V814.904ZM1927.33 1106.6L1939.49 872.289L1930.59 861.264H1774.85L1788.5 1069.63C1787.38 1079.03 1806.04 1106.47 1811.31 1106.47H1927.33V1106.6Z" fill="#CB2323"/>
<path d="M3930.02 819.841V866.326L3854.72 867.203L3843.44 882.99L3863.62 1376.54H3764.26C3753.1 1288.95 3769.77 1194.23 3770.9 1104.77H3611.89C3630.31 1144.99 3633.32 1207.26 3625.17 1250.61H3485.97C3487.35 1197.24 3484.97 1134.46 3492.99 1081.96C3494.87 1069.81 3500 1059.91 3509.15 1051.77H3770.9C3767.26 1043.25 3777.54 1032.09 3777.54 1028.59V866.201H3386.48L3399.77 1376.54H3300.4C3301.66 1326.92 3298.78 1276.8 3300.15 1227.18C3302.66 1133.08 3310.43 1037.23 3313.44 942.256C3314.81 899.78 3345.26 857.555 3273.84 866.326V819.841H3930.02Z" fill="#CB2323"/>
<path d="M3015.48 1197.61C3021.24 1208.64 3032.64 1219.16 3041.91 1227.56C3073.86 1256.5 3169.84 1324.41 3188.14 1353.1C3193.4 1361.25 3196.28 1366.26 3194.53 1376.66H3091.78C3050.31 1326.92 2988.41 1276.92 2949.44 1227.3C2932.53 1205.63 2904.71 1176.06 2933.66 1152.25C2967.99 1144.48 3071.23 1165.03 3091.41 1137.72C3097.8 1086.1 3159.94 917.194 3147.04 877.35C3145.53 872.589 3142.03 869.206 3138.14 866.324H2992.3C2963.6 866.324 3006.33 975.583 3014.1 990.243C3030.64 1021.19 3051.06 1011.42 3081.76 1012.04V1058.53H2959.09C2928.14 1018.56 2910.6 932.105 2904.46 881.234C2902.08 861.562 2896.32 833.872 2912.73 819.964H3204.3C3224.47 819.964 3221.34 876.097 3220.71 889.504C3217.58 958.042 3199.79 1077.83 3185.63 1145.99C3183.37 1156.89 3178.24 1197.73 3164.45 1197.73H3015.35L3015.48 1197.61Z" fill="#CB2323"/>
<path d="M4808.23 1562.1C4787.68 1555.71 4799.84 1424.15 4821.01 1409.24C4842.19 1394.33 4987.28 1404.35 5021.99 1408.11C5051.43 1444.57 5226.47 1591.04 5234.74 1619.86C5236.87 1627.26 5237.62 1635.78 5232.99 1642.17C5171.97 1650.81 5123.48 1666.72 5083.26 1611.97C5054.82 1573.38 5019.23 1488.18 4991.04 1458.98C4973.87 1441.32 4940.8 1451.97 4917.74 1449.33C4911.6 1488.3 4931.4 1525.39 4917.74 1561.98H4808.36L4808.23 1562.1Z" fill="#CB2323"/>
<path d="M708.272 79.1466V90.4839C608.483 85.5372 512.892 113.239 427.168 162.411C424.173 162.839 418.023 156.368 411.82 155.646C392.434 153.373 370.428 173.427 362.915 189.925C348.663 221.156 366.632 240.435 397.542 223.135C414.307 213.749 427.489 195.353 429.628 176.021C513.882 125.832 609.232 97.5696 708.272 103.211V114.549C627.227 105.859 551.476 166.208 531.155 242.948C330.935 354.903 189.167 553.893 223.365 792.509C275.292 1154.85 686.721 1348.81 999.484 1153.27C1311.15 958.423 1322.65 505.148 1019.86 295.864C961.381 255.435 903.786 232.6 834.746 216.477C830.842 215.568 830.95 214.846 834.853 214.926C851.592 215.38 879.855 223.456 896.646 228.108C1319.55 344.956 1401.15 856.227 1090.13 1140.67C762.338 1440.47 251.013 1231.53 154.513 823.152L146.759 782.134C169.032 1017.22 340.294 1219.37 566.504 1283.81C861.833 1367.95 1172.75 1212.36 1280.69 926.737C1403.61 601.488 1215.45 224.873 887.529 121.26L828.463 106.099C1083.9 141.421 1296.34 336.266 1348.5 589.509C1435.83 1013.56 1082 1408.01 649.741 1354.74C366.712 1319.88 132.989 1093.13 83.5754 813.499L74.6714 746.759C81.57 936.042 171.466 1120.3 317.245 1240.33C627.04 1495.42 1101.68 1404.24 1309.95 1067.7C1546.58 685.34 1332.3 160.245 916.914 19.7599L842.634 0C1162.83 45.5093 1418.32 313.324 1453.45 634.483C1509.55 1147.25 1037.45 1558.2 536.823 1422.39C65.5535 1294.56 -145.896 739.727 109.405 323.966C197.402 180.647 329.491 81.3659 481.528 12.9148C506.742 34.0919 538.401 45.1884 569.659 54.4133C614.66 67.7024 661.212 77.6225 708.272 79.1466Z" fill="#CB2323"/>
<path d="M519.443 733.978C521.849 733.711 529.256 732.294 530.058 729.753C487.463 717.534 460.136 691.678 468.211 644.564C475.511 602.023 507.785 571.647 541.743 548.385C544.524 546.486 560.246 538.812 558.321 536.005L486.848 487.955C482.222 483.864 485.324 473.115 491.207 472.313C498.159 471.35 518.614 486.057 525.405 490.415C543.294 501.966 560.193 515.202 578.027 526.86L600.488 514.079C567.118 459.612 547.518 376.08 600.755 327.336C654.874 277.789 732.497 294.768 785.306 336.587C818.061 362.524 862.367 424.878 855.014 468.463C853.409 478.008 844.799 484.987 842.767 494.399C841.323 501.057 839.933 519.32 842.928 525.069C845.334 529.668 870.255 538.705 876.458 542.449C891.378 551.46 913.598 575.631 923.545 590.124C935.257 607.183 943.091 626.275 950.043 645.687L986.862 637.799C976.14 614.83 966.167 583.332 982.611 560.711L1093.6 561.46C1106.41 569.883 1104.7 589.295 1102.61 602.932C1100.5 616.702 1089.81 637.077 1089 645.901C1088.6 650.233 1091.38 656.115 1091.57 661.088C1092.48 684.672 1091.89 696.731 1084.08 718.764C1077.83 736.438 1068.42 753.123 1062.83 771.038C1058.98 783.338 1058.01 795.049 1054.94 807.002C1052.72 815.612 1045.69 846.548 1041.89 851.923C1041.28 852.805 1040.85 853.741 1039.67 854.035C1033.9 855.666 1030.85 846.628 1029.03 842.404C1022.37 826.842 1020.71 809.622 1015.53 793.686C1013.65 787.937 1011.11 777.081 1004.62 776.306C997.184 775.423 964.536 775.37 959.963 779.889C956.648 783.151 961.193 799.702 961.461 805.317C962.53 827.403 960.525 849.409 957.156 871.148H1123.34C1130.93 871.148 1132.03 899.438 1123.34 899.438H962.102C960.097 900.667 960.15 902.245 959.91 904.304C958.546 915.855 961.915 928.877 961.38 941.123C960.364 965.134 955.204 990.082 930.256 999.093C928.652 999.681 918.892 1002.65 918.277 1002.65H896.352C904.24 1014.52 907.368 1023.26 901.833 1037.12C892.715 1059.84 825.922 1112.38 802.552 1123.11C784.263 1131.5 740.866 1143.7 727.283 1122.95C715.411 1104.82 744.69 1097.57 754.556 1092.09C756.161 1091.21 756.963 1092.2 756.374 1088.93C706.534 1082.36 658.457 1071.02 612.146 1051.39C533.748 1018.18 467.677 962.862 411.231 900.133C385.375 896.978 356.845 901.791 331.282 899.464C321.202 898.555 318.127 891.416 319.41 881.817C319.945 877.699 324.303 871.121 328.528 871.121H399.947C398.931 864.704 392.648 859.864 394.466 852.885C428.531 843.58 489.094 827.938 503.453 791.44C505.378 786.547 508.56 781.974 502.838 778.846C501.849 778.311 489.121 774.942 488.372 774.942H462.195L460.778 733.925C479.495 732.454 501.1 735.903 519.469 733.925L519.443 733.978ZM814.317 407.258C788.702 341.908 702.202 300.757 636.13 327.389C586.503 347.39 584.578 404.423 591.022 450.227L593.669 451.831C615.729 428.435 639.473 406.375 670.704 395.894C718.432 379.877 767.952 393.487 814.291 407.258H814.317ZM626.932 453.944H658.056C672.575 453.944 691.453 473.703 699.261 484.88C704.234 491.993 715.705 516.378 719.983 520.015C724.716 524.026 738.353 522.368 736.534 530.924C734.369 541.219 716.347 538.839 708.486 538.572C707.576 533.09 688.084 505.683 685.062 506.325C675.837 520.897 660.382 524.4 646.077 531.112C645.676 532.448 646.211 533.384 646.746 534.534C647.494 536.165 660.169 550.738 662.334 552.904C724.154 614.911 809.585 600.124 822.686 508.196C823.81 500.389 822.954 486.672 824.612 480.415C826.002 475.174 834.692 465.575 836.911 457.366C838.73 450.628 839.612 445.307 835.575 439.05C829.799 430.093 820.36 432.044 811.563 429.103C805.975 427.258 800.199 422.927 794.504 420.707C758.193 406.482 721.267 398.3 682.495 409.022C667.094 413.301 628.002 433.809 625.382 450.949L626.959 453.863L626.932 453.944ZM658.618 471.056C642.361 466.003 610.702 477.153 613.67 497.635L619.232 498.544C627.333 485.789 642.895 480.174 657.441 478.81L658.618 471.083V471.056ZM643.19 509.106C647.575 511.164 665.035 504.079 663.859 499.132C657.869 486.912 641.264 498.731 643.19 509.106ZM733.7 613.788C686.747 597.637 643.35 569.535 613.483 529.507L593.696 537.422L708.352 620.151L733.7 613.788ZM688.458 629.323L685.517 624.51L573.508 548.919C530.914 572.396 489.656 609.269 486.233 661.195C481.741 729.352 593.776 718.978 635.435 705.742C650.757 700.876 658.778 698.79 660.142 680.955C664.554 623.119 602.065 625.071 562.278 631.168C555.513 632.211 544.791 636.141 539.042 636.382C532.438 636.649 530.486 625.339 535.219 622.504C541.475 618.761 580.701 614.108 582.386 612.37C582.787 602.29 571.048 600.659 563.909 597.45L564.203 592.798C571.583 589.134 579.043 592.504 586.637 592.611C590.407 580.685 569.605 573.412 577.546 563.091C599.953 565.23 606.237 590.953 617.146 606.648C625.943 619.296 624.9 613.387 637.869 615.633C650.837 617.879 665.837 626.114 671.506 637.906L688.458 629.403V629.323ZM847.099 713.978C854.532 718.283 862.554 698.977 864.212 694.057C873.089 667.532 885.416 611.809 880.442 585.15C877.742 570.605 873.544 564.321 861.484 556.032C854.345 551.139 845.709 545.256 841.27 556.54C836.831 567.824 826.483 616.274 825.628 628.574C825.066 636.622 824.745 644.724 829.933 651.249C833.034 655.152 838.409 656.57 839.532 661.463C841.938 671.971 836.19 680.715 837.152 690.688C837.58 695.287 843.65 711.945 847.152 713.978H847.099ZM815.734 576.995C812.365 576.22 813.435 577.583 812.579 578.84C798.515 599.456 774.263 618.547 747.845 613.761C745.305 631.382 789.103 638.842 798.755 634.27C807.044 630.339 818.301 587.156 815.708 576.995H815.734ZM1077.4 582.637L1001.92 581.407C990.953 601.461 1007.16 632.826 1031.38 633.628C1061.81 634.644 1079.86 611.916 1077.4 582.637ZM1008.01 736.732C1010.31 719.593 991.889 711.117 997.21 692.667C1003.47 670.875 1038.2 670.875 1035.02 651.329C1032.21 634.136 994.429 651.864 986.328 661.998C969.348 683.228 974.937 735.369 1008.04 736.732H1008.01ZM810.093 661.837C812.258 658.735 806.857 655.233 804.451 654.056C781.349 642.853 717.55 643.468 693.378 651.89C679.554 656.703 666.078 672.853 675.116 687.239C683.405 700.448 701.961 706.758 716.507 709.486C722.898 710.689 740.064 713.496 745.652 712.721C758.38 710.956 754.77 693.924 756.535 683.95C757.444 678.763 759.342 671.383 762.257 667.024C773.514 650.126 807.151 666.062 810.119 661.837H810.093ZM1056.54 657.96C1045.26 668.843 1082.85 673.388 1078.23 656.088C1075.98 652.96 1059.48 655.126 1056.54 657.96ZM918.277 732.588H962.129C962.878 732.588 965.311 730.796 966.889 731.01C968.172 729.566 962.129 697.64 960.979 692.72C959.535 686.544 955.685 666.57 948.038 666.196C928.599 670.607 921.058 684.057 917.957 702.56C917.128 707.453 914.079 731.278 918.277 732.588ZM778.969 670.34C776.856 683.228 808.675 680.421 808.649 675.287C807.552 674.164 801.536 670.34 800.895 670.34H778.969ZM1038.79 677.72C1029.88 680.314 1030.9 692.052 1040.21 694.111C1044.38 695.02 1062.02 696.063 1066.41 695.448C1079.89 693.576 1081.25 680.18 1067.85 677.773C1063.39 676.971 1042.56 676.624 1038.79 677.72ZM804.424 692.961C803.836 681.463 786.429 688.068 778.969 688.736C779.236 701.705 796.322 693.121 804.424 692.961ZM770.493 714.192H799.477C804.317 714.192 807.098 710.154 803.622 705.796C797.659 698.336 778.808 701.678 770.68 704.485L770.493 714.192ZM1035.98 706.009C1031.11 707.133 1027.85 712.801 1029.46 717.534C1031.6 723.844 1073.39 726.465 1068.68 710.956C1066.7 704.459 1041.65 704.699 1035.98 706.009ZM747.524 728.657C745.786 727.427 712.496 723.791 705.41 721.973C693.565 718.924 682.228 713.844 671.934 707.293C653.671 721.411 630.248 724.967 607.814 727.614C607.092 730.502 611.05 730.636 612.895 730.984C637.361 735.449 664.34 734.914 689.073 738.283L750.652 738.23C751.481 737.454 748.513 729.379 747.497 728.657H747.524ZM1030.31 727.213C1028.57 727.721 1027.34 729.085 1026.73 730.77C1022.99 743.363 1051.41 749.326 1058.33 741.117C1065.71 726.598 1038.79 724.727 1030.31 727.24V727.213ZM999.242 761.92C1002.5 758.364 1000.02 749.861 995.766 748.471C993.333 747.668 986.354 746.893 983.413 746.679C962.183 745.182 938.438 747.16 916.834 746.786C806.215 744.861 695.277 745.663 584.445 745.369C561.69 745.315 539.577 744.433 516.689 745.369C506.662 745.77 483.853 743.096 476.34 748.872C471.126 752.856 474.388 762 478.666 763.471C487.009 766.305 505.378 761.118 515.138 765.182C674.34 763.311 833.917 770.049 992.852 764.728C994.376 764.3 998.306 762.883 999.216 761.92H999.242ZM792.819 775.423C788.996 775.744 781.028 776.145 778.193 777.75C774.183 780.022 756.214 802.991 752.177 808.285C749.262 812.109 737.604 826.628 736.828 829.81C734.796 838.072 757.631 863.848 764.503 865.265C775.386 867.511 795.36 838.42 800.814 830.024C806.269 821.628 825.013 790.691 824.264 782.776C823.409 773.872 799.21 774.888 792.846 775.397L792.819 775.423ZM905.282 781.092C880.496 829.168 850.388 874.089 820.28 918.903C817.339 928.529 846.083 958.931 852.153 960.027C866.11 962.568 881.752 936.765 889.052 926.764C916.994 888.341 943.492 843.66 938.866 794.033C937.262 776.787 918.491 773.445 905.309 781.092H905.282ZM839.799 977.247C773.755 922.593 718.406 856.762 668.003 787.696C577.279 752.348 551.556 822.189 609.231 887.485C659.34 944.225 719.047 974.787 795.279 978.664C810.226 979.413 824.879 976.445 839.826 977.247H839.799ZM565.407 780.664H527.919C511.822 812.43 480.698 830.826 455.617 854.169C454.468 858.367 476.393 882.619 479.602 882.298C520.94 861.201 548.508 823.098 565.407 780.664ZM419.333 860.158C412.782 861.602 410.723 867.511 414.279 873.127C467.516 938.556 530.566 996.419 608.322 1031.26C642.013 1046.34 711.507 1073.53 747.176 1073.56C770.386 1073.56 774.156 1052.73 756 1046.23C744.128 1041.98 724.395 1039.87 710.812 1036.26C616.504 1011.1 551.69 975.322 483.372 905.881C472.998 895.32 456.072 871.95 445.724 864.33C440.029 860.132 426.071 858.714 419.36 860.185L419.333 860.158ZM587.787 885.587C578.428 880.159 568.027 904.384 564.631 909.277C560.834 914.705 540.753 933.743 540.165 935.856C538.855 940.642 544.256 947.46 547.732 950.401C550.54 952.781 567.893 961.872 570.968 962.461C583.054 964.76 605.836 922.379 603.028 910.801C602.306 907.833 589.552 886.63 587.787 885.613V885.587ZM929.829 895.427L871.565 968.825C870.308 971.605 873.036 974.734 875.201 976.472C883.597 983.21 914.721 984.948 925.042 982.595C928.144 981.9 933.492 976.953 935.176 974.333C942.182 963.477 940.925 936.043 940.176 922.78C939.989 919.358 937.556 897.753 936.727 896.523C935.497 894.705 931.7 894.758 929.802 895.4L929.829 895.427ZM661.238 957.728C653.163 959.252 639.66 982.408 638.296 989.814C635.328 1005.99 663.324 1011.31 674.741 1008.08C685.463 1005.03 686.506 981.392 683.859 972.648C681.72 965.562 668.618 956.311 661.238 957.728ZM753.112 991.713C739.556 994.788 743.727 1016.47 744.315 1026.79C761.936 1035.72 784.45 1030.51 780.332 1006.34C778.621 996.365 762.444 989.601 753.139 991.713H753.112ZM739.369 1114.44C742.898 1124.2 757.016 1121.48 765.118 1119.68C793.541 1113.32 809.478 1094.34 831.43 1078.51C850.388 1064.84 887.1 1051.69 883.677 1023.18C881.913 1008.5 855.361 998.718 842.687 996.312C827.366 993.371 812.659 992.969 798.301 999.761C792.926 1029.87 790.279 1055.97 775.493 1083.37C767.792 1097.62 756.455 1111.82 739.395 1114.47L739.369 1114.44Z" fill="#CB2323"/>
<path d="M780.226 428.649C786.349 454.852 741.936 485.548 719.957 478.329C694.234 469.88 723.754 444.317 734.69 437.258C749.048 428.007 763.166 424.156 780.226 428.649ZM729.476 462.42C732.257 464.906 762.15 455.441 757.097 445.44C751.054 433.542 726.534 459.772 729.476 462.42Z" fill="#CB2323"/>
<path d="M740.493 540.63C774.103 536.727 731.348 564.348 718.781 555.872C712.925 547.77 734.931 541.272 740.493 540.63Z" fill="#CB2323"/>
<path d="M728.059 569.909C729.93 562.209 751.99 550.149 754.717 559.615C756.375 565.364 748.193 568.278 743.995 569.615C737.685 571.621 734.556 571.701 728.059 569.936V569.909Z" fill="#CB2323"/>
</svg>
